<svg width="34" height="45" viewBox="0 0 34 45" fill="none" xmlns="http://www.w3.org/2000/svg">
<path fill-rule="evenodd" clip-rule="evenodd" d="M17 1.97519C8.71573 1.97519 2 8.60759 2 16.7891C2 20.6976 3.53136 24.2507 6.03575 26.8986C8.7748 29.7947 12.6728 31.603 17 31.603C21.3272 31.603 25.2252 29.7947 27.9642 26.8986C30.4686 24.2507 32 20.6976 32 16.7891C32 8.60759 25.2843 1.97519 17 1.97519ZM0 16.7891C0 7.51673 7.61116 0 17 0C26.3888 0 34 7.51673 34 16.7891C34 21.025 32.4104 24.8963 29.7897 27.8497L33.0432 41.3448C33.6167 43.7234 31.1906 45.7255 28.9224 44.7454L17.4008 39.7673C17.1453 39.6569 16.8547 39.6569 16.5992 39.7673L5.07763 44.7454C2.80941 45.7255 0.383309 43.7234 0.956756 41.3448L4.21025 27.8497C1.58964 24.8963 0 21.025 0 16.7891ZM5.87258 29.4822L2.90237 41.8023C2.71122 42.5952 3.51992 43.2625 4.27599 42.9358L15.7975 37.9577C16.5641 37.6265 17.4359 37.6265 18.2025 37.9577L29.724 42.9358C30.4801 43.2625 31.2888 42.5952 31.0976 41.8023L28.1274 29.4822C25.1462 32.0332 21.2552 33.5782 17 33.5782C12.7448 33.5782 8.85381 32.0332 5.87258 29.4822ZM25.7071 12.1404C26.0976 12.5261 26.0976 13.1514 25.7071 13.537L17 22.1361L12.2929 17.4874C11.9024 17.1017 11.9024 16.4764 12.2929 16.0907C12.6834 15.7051 13.3166 15.7051 13.7071 16.0907L17 19.3428L24.2929 12.1404C24.6834 11.7547 25.3166 11.7547 25.7071 12.1404Z" fill="#EC5839"/>
</svg>
