<svg width="21" height="21" viewBox="0 0 21 21" fill="none" xmlns="http://www.w3.org/2000/svg">
<path fill-rule="evenodd" clip-rule="evenodd" d="M10.5 1.75C5.66751 1.75 1.75 5.66751 1.75 10.5C1.75 15.3325 5.66751 19.25 10.5 19.25C15.3325 19.25 19.25 15.3325 19.25 10.5C19.25 5.66751 15.3325 1.75 10.5 1.75ZM0 10.5C0 4.70101 4.70101 0 10.5 0C16.299 0 21 4.70101 21 10.5C21 16.299 16.299 21 10.5 21C4.70101 21 0 16.299 0 10.5ZM10.5 5.25C10.9832 5.25 11.375 5.64175 11.375 6.125V10.0795L15.4216 13.3167C15.799 13.6186 15.8601 14.1693 15.5583 14.5466C15.2564 14.924 14.7057 14.9851 14.3284 14.6833L9.625 10.9205V6.125C9.625 5.64175 10.0168 5.25 10.5 5.25Z" fill="#F25D39"/>
</svg>
