<svg width="18" height="18" viewBox="0 0 18 18" fill="none" xmlns="http://www.w3.org/2000/svg">
<path fill-rule="evenodd" clip-rule="evenodd" d="M2.39133 1.64302C1.9133 1.64302 1.6105 2.01595 1.64671 2.38118C2.37785 9.75571 8.24429 15.6221 15.6188 16.3533C15.9841 16.3895 16.357 16.0867 16.357 15.6087V12.6853C16.357 12.3317 16.1307 12.0178 15.7953 11.906L12.953 10.9586C12.6578 10.8602 12.3323 10.937 12.1123 11.157L11.6574 11.612C11.113 12.1563 10.2459 12.2604 9.58896 11.8111C8.03538 10.7483 7.13062 9.84945 6.16567 8.39658C5.72939 7.7397 5.84365 6.88702 6.37819 6.35248L6.84297 5.88769C7.063 5.66767 7.13983 5.34221 7.04143 5.04701L6.09401 2.20474C5.98219 1.86929 5.66826 1.64302 5.31466 1.64302H2.39133ZM0.0117086 2.54328C-0.131133 1.10253 1.05453 0 2.39133 0H5.31466C6.37546 0 7.31725 0.678805 7.65271 1.68518L8.60013 4.52745C8.89533 5.41304 8.66484 6.3894 8.00476 7.04948L7.54724 7.507C8.37674 8.75207 9.12301 9.49993 10.5013 10.4445L10.9505 9.99524C11.6106 9.33516 12.587 9.10467 13.4726 9.39987L16.3148 10.3473C17.3212 10.6827 18 11.6245 18 12.6853V15.6087C18 16.9455 16.8975 18.1311 15.4567 17.9883C7.30296 17.1799 0.820109 10.697 0.0117086 2.54328Z" fill="#F25D39"/>
</svg>
