<?xml version="1.0" encoding="utf-8"?>
<svg width="36" height="30" fill="none" xmlns="http://www.w3.org/2000/svg"><path fill-rule="evenodd" clip-rule="evenodd" d="M22.49 1.674a2.497 2.497 0 00-2.965 1.382l-2.834 6.41c-.433.978-1.146 1.982-1.997 2.81-.622.606-1.345 1.145-2.121 1.51.125.383.192.79.192 1.214v11.053c0 .057-.001.114-.003.17 3.456.888 6.068 1.392 8.536 1.525 2.616.142 5.107-.13 8.3-.842 1.48-.33 2.62-1.518 2.923-3.016l1.835-9.08c.297-1.466-.836-2.834-2.346-2.834h-6.191c-1.48 0-2.605-1.314-2.361-2.758l.803-4.77a2.463 2.463 0 00-1.772-2.774zM12.375 27.756c3.488.895 6.216 1.427 8.835 1.569 2.804.151 5.447-.146 8.737-.879 2.121-.472 3.717-2.163 4.138-4.247l1.835-9.08c.494-2.443-1.394-4.722-3.911-4.722h-6.191a.792.792 0 01-.787-.919l.803-4.77c.342-2.028-.91-3.987-2.907-4.552-1.966-.556-4.045.413-4.865 2.267l-2.834 6.41c-.343.775-.932 1.615-1.655 2.318-.568.553-1.186.991-1.79 1.255a3.999 3.999 0 00-3.008-1.353H3.99C1.786 11.053 0 12.82 0 15v11.053C0 28.233 1.786 30 3.99 30h4.786a3.992 3.992 0 003.6-2.244zM3.989 12.632c-1.322 0-2.393 1.06-2.393 2.368v11.053c0 1.308 1.071 2.368 2.393 2.368h4.787a2.39 2.39 0 002.325-1.8c.044-.181.069-.372.069-.568V15c0-.456-.13-.88-.354-1.24a2.397 2.397 0 00-2.04-1.128H3.99z" fill="#EC5839"/></svg>