<svg width="48" height="32" viewBox="0 0 48 32" fill="none" xmlns="http://www.w3.org/2000/svg">
<path fill-rule="evenodd" clip-rule="evenodd" d="M0.540562 2.96713C1.39215 1.21101 3.16546 0 5.21739 0H42.7826C44.8345 0 46.6078 1.21101 47.4594 2.96713C47.8058 3.68139 48 4.4857 48 5.33333V26.6667C48 29.6122 45.6641 32 42.7826 32H5.21739C2.3359 32 0 29.6122 0 26.6667V5.33333C0 4.4857 0.194204 3.68139 0.540562 2.96713ZM2.99899 3.07532L22.501 13.9492C23.4353 14.4701 24.5647 14.4701 25.499 13.9492L45.001 3.07532C44.4335 2.49275 43.6486 2.13333 42.7826 2.13333H5.21739C4.35136 2.13333 3.56649 2.49275 2.99899 3.07532ZM45.8969 5.00583L26.4984 15.822C24.9411 16.6903 23.0589 16.6903 21.5016 15.822L2.10307 5.00583C2.09242 5.11339 2.08696 5.22264 2.08696 5.33333V26.6667C2.08696 28.434 3.4885 29.8667 5.21739 29.8667H42.7826C44.5115 29.8667 45.913 28.434 45.913 26.6667V5.33333C45.913 5.22264 45.9076 5.11339 45.8969 5.00583Z" fill="#EC5839"/>
</svg>
