<svg width="16" height="21" viewBox="0 0 16 21" fill="none" xmlns="http://www.w3.org/2000/svg">
<path fill-rule="evenodd" clip-rule="evenodd" d="M8 1.77154C4.56356 1.77154 1.77778 4.54754 1.77778 7.97191C1.77778 10.4792 2.89866 12.9105 4.28694 14.9467C5.63595 16.9254 7.18186 18.4499 8 19.1954C8.81814 18.4499 10.3641 16.9254 11.7131 14.9467C13.1013 12.9105 14.2222 10.4792 14.2222 7.97191C14.2222 4.54754 11.4364 1.77154 8 1.77154ZM0 7.97191C0 3.56915 3.58172 0 8 0C12.4183 0 16 3.56915 16 7.97191C16 10.9851 14.6656 13.7686 13.1836 15.9423C11.6942 18.1268 9.99623 19.7824 9.13814 20.5587C8.48768 21.1471 7.51232 21.1471 6.86186 20.5587C6.00377 19.7824 4.30578 18.1268 2.81643 15.9423C1.33443 13.7686 0 10.9851 0 7.97191ZM8 6.20038C7.01816 6.20038 6.22222 6.99352 6.22222 7.97191C6.22222 8.9503 7.01816 9.74345 8 9.74345C8.98184 9.74345 9.77778 8.9503 9.77778 7.97191C9.77778 6.99352 8.98184 6.20038 8 6.20038ZM4.44444 7.97191C4.44444 6.01513 6.03632 4.42884 8 4.42884C9.96368 4.42884 11.5556 6.01513 11.5556 7.97191C11.5556 9.9287 9.96368 11.515 8 11.515C6.03632 11.515 4.44444 9.9287 4.44444 7.97191Z" fill="#F25D39"/>
</svg>
