<svg width="33" height="33" fill="none" xmlns="http://www.w3.org/2000/svg"><path fill-rule="evenodd" clip-rule="evenodd" d="M23.352.134c2.492-.663 4.934 1.225 4.934 3.815v2.213h.785c2.17 0 3.929 1.767 3.929 3.947v18.944C33 31.233 31.241 33 29.071 33H3.93C1.759 33 0 31.233 0 29.053V9.382C0 7.59 1.2 6.024 2.923 5.566L23.352.134zM6.824 6.162l16.93-4.502c1.495-.398 2.96.735 2.96 2.289v2.213H6.824zm-5.253 3.947v18.944a2.363 2.363 0 002.358 2.368H29.07a2.363 2.363 0 002.358-2.368v-5.525h-5.5c-2.17 0-3.929-1.767-3.929-3.947s1.759-3.947 3.929-3.947h5.5V10.11a2.363 2.363 0 00-2.357-2.368H3.928a2.363 2.363 0 00-2.358 2.368zm29.858 7.104h-5.5a2.363 2.363 0 00-2.358 2.368 2.363 2.363 0 002.358 2.368h5.5v-4.736z" fill="#EC5839"/></svg>