<svg version="1.1" id="Layer_1" xmlns="http://www.w3.org/2000/svg" x="0" y="0" viewBox="0 0 266 21" xml:space="preserve"><style>.st0{fill-rule:evenodd;clip-rule:evenodd;}</style><path fill="#ec5839" class="st0" d="M204 1c2.8 0 5.1 2.2 5.1 5 0 2.7-2.3 5-5.1 5s-5.1-2.2-5.1-5 2.3-5 5.1-5zm0 7.2c1.3 0 2.3-1 2.3-2.3 0-1.2-1-2.3-2.3-2.3s-2.3 1-2.3 2.3c0 1.3 1 2.3 2.3 2.3zm1 6.4c1-.1 2.4-.3 3.5-1 1.3-.7 1.8-1.2 1.3-2.2-.3-.6-1-.9-2.1-.1-1.4 1-3.7 1-3.7 1s-2.3 0-3.7-1c-1.1-.8-1.8-.3-2.1.2-.5.9.1 1.3 1.3 2.1 1.1.6 2.6.9 3.5 1l-.8.7c-1.1 1-2.2 2-3 2.7-.5.4-.5 1.1 0 1.5l.1.1c.2.2.5.3.8.3.3 0 .6-.1.8-.3l3-2.7 3 2.7c.5.4 1.2.4 1.6 0l.1-.1c.5-.4.5-1.1 0-1.5l-3.6-3.4zM6.9 4.2c-1.2 0-1.3.5-1.3 1.4v1.5h3l-.3 3.2H5.6V20H1.9v-9.7H0V7.2h1.9v-2C1.9 2.5 3.1 1 6.2 1c1 0 1.8.2 2.8.4l-.5 3c-.5-.1-1.2-.2-1.6-.2zM64.8 14.7c.7 1.2-.8 1.2-.8 1.2h-2.9s-.6.1-1.5-.4c-1.1-.7-2.1-2.6-2.9-2.4-.8.2-.8 1.9-.8 1.9s0 .4-.2.6c-.2.2-.6.3-.6.3h-1.3s-2.9.2-5.5-2.4c-2.8-2.8-5.2-8.3-5.2-8.3s-.1-.4 0-.5c.2-.2.6-.2.6-.2h3.1s.3 0 .5.2c.2.1.3.4.3.4s.5 1.2 1.2 2.3c1.3 2.2 1.9 2.6 2.4 2.4.6-.3.5-3.1.5-3.1s0-1-.3-1.4c-.3-.3-.8-.4-1-.5-.2 0 .1-.4.5-.6.5-.2 1.5-.2 2.7-.2.9 0 1.2.1 1.5.1 1.1.3.7 1.2.7 3.5 0 .7-.1 1.8.4 2.1.2.1.8 0 2.3-2.4.8-1 1.3-2.3 1.3-2.3s.1-.2.3-.3c.2-.1.4-.1.4-.1h3.3s1-.1 1.2.3c.2.5-.4 1.5-1.7 3.2-2.2 2.8-2.5 2.6-.6 4.2 1.7 1.5 2 2.3 2.1 2.4zM158.2 21h-8.5c-3.2 0-5.8-2.7-5.8-6.1V6.1c0-3.3 2.6-6.1 5.8-6.1h8.5c3.2 0 5.8 2.7 5.8 6.1V15c0 3.3-2.6 6-5.8 6zm3.9-15.2c0-2.1-1.6-3.9-3.7-3.9 0 0-2.1-.1-4.2-.1-2.3 0-4.7.1-4.7.1-2 0-3.7 1.7-3.7 3.9 0 0-.1 2.5-.1 4.9 0 2.2.1 4.4.1 4.4 0 2.1 1.6 3.9 3.7 3.9 0 0 2.3.1 4.6.1 2.2 0 4.3-.1 4.3-.1 2 0 3.7-1.7 3.7-3.9 0 0 .1-2.2.1-4.4 0-2.4-.1-4.9-.1-4.9zm-2.8.3c-.7 0-1.2-.6-1.2-1.3 0-.7.5-1.3 1.2-1.3s1.2.6 1.2 1.3c0 .8-.5 1.3-1.2 1.3zm-5.3 9.8c-2.9 0-5.2-2.4-5.2-5.4 0-3 2.3-5.4 5.2-5.4 2.9 0 5.2 2.4 5.2 5.4 0 3-2.3 5.4-5.2 5.4zm0-9c-1.8 0-3.3 1.6-3.3 3.5s1.5 3.5 3.3 3.5c1.8 0 3.3-1.6 3.3-3.5s-1.5-3.5-3.3-3.5zM263.5 3.5c1 .2 1.8 1 2 1.9.5 1.7.5 5.2.5 5.2s0 3.5-.5 5.2c-.3.9-1 1.6-2 1.9-1.8.4-9 .4-9 .4s-7.2 0-9-.5c-1-.2-1.8-1-2-1.9-.5-1.7-.5-5.2-.5-5.2s0-3.5.5-5.2c.3-.9 1.1-1.7 2-1.9 1.8-.4 9-.4 9-.4s7.2 0 9 .5zm-11.3 3.8l6 3.2-6 3.2V7.3zM110.4 4.9c1.3-1 1.6-2.1 1.6-2.1-.1.1-1.6.7-2.4.9-.6-.7-1.3-1.2-2.7-1.2-3.4 0-4 3.6-3.6 4.6-4.1 0-6.9-3.2-7.6-3.9-1.4 2.1.2 4.5 1 5 0 0-1 0-1.5-.5-.1 2.6 1.9 3.5 2.9 3.9-.5.2-1.3.1-1.6 0 .8 2.3 2.8 2.6 3.4 2.7-2.5 2.1-5.4 1.5-5.4 1.5 1.4 1.2 3.5 1.7 5.6 1.7 7.5 0 10.7-6.5 10.6-11.3 1.2-.8 1.8-1.9 1.8-1.9-.2.1-1.6.5-2.1.6z"/></svg>
